<?xml version="1.0" encoding="utf-8"?><!-- Uploaded to: SVG Repo, www.svgrepo.com, Generator: SVG Repo Mixer Tools -->
<svg width="800px" height="800px" viewBox="0 0 400 400" fill="none" xmlns="http://www.w3.org/2000/svg">
<path opacity="0.302967" d="M73.2033 254.149C69.5306 207.513 116.33 156.119 156.416 136.339C166.3 131.465 180.719 129.209 191.691 128.305C254.947 123.105 326.455 185.183 326.455 248.794" stroke="#000000" stroke-opacity="0.9" stroke-width="14" stroke-linecap="round" stroke-linejoin="round"/>
<path d="M73.2033 254.149C69.5306 207.513 116.33 156.119 156.416 136.339C166.3 131.465 180.719 129.209 191.691 128.305C221.817 125.829 253.815 138.612 279.068 159.553" stroke="#000000" stroke-opacity="0.9" stroke-width="14" stroke-linecap="round" stroke-linejoin="round"/>
<path d="M185.818 241.951C188.525 240.28 193.269 238.537 196.653 239.28C215.154 243.336 218.014 267.959 198.458 272.249C181.995 275.86 168.804 255.176 180.4 243.736" stroke="#000000" stroke-opacity="0.9" stroke-width="16" stroke-linecap="round" stroke-linejoin="round"/>
<path d="M186.419 237.14C210.793 219.928 231.086 196.652 253.805 177.665C255.445 176.295 263.628 167.256 265.484 168.653C273.736 174.861 214.818 255.448 207.982 266.88" stroke="#000000" stroke-opacity="0.9" stroke-width="16" stroke-linecap="round" stroke-linejoin="round"/>
<path d="M196.229 129.118C197.632 134.8 197.868 140.644 197.868 146.478" stroke="#000000" stroke-opacity="0.9" stroke-width="16" stroke-linecap="round" stroke-linejoin="round"/>
<path d="M100.941 215.663C96.5803 213.775 93.9839 212.139 88.8369 208.973" stroke="#000000" stroke-opacity="0.9" stroke-width="16" stroke-linecap="round" stroke-linejoin="round"/>
<path fill-rule="evenodd" clip-rule="evenodd" d="M306.908 206.552C305.569 206.733 302.483 208.661 297.649 212.338L306.908 206.552Z" stroke="#000000" stroke-opacity="0.9" stroke-width="16" stroke-linecap="round" stroke-linejoin="round"/>
</svg>